<svg xmlns="http://www.w3.org/2000/svg" xmlns:xlink="http://www.w3.org/1999/xlink" viewBox="0 0 450 450" width="400" height="400"><desc><pre> . b . b . b . b . b
 b . b . b . b . b .
 . b . b . b . b . b
 b . b . b . b . b .
 . . . . . . . . . .
 . . . . . . . . . .
 . w . w . w . w . w
 w . w . w . w . w .
 . w . w . w . w . w
 w . w . w . w . w .
</pre></desc><rect x="0" y="0" width="45" height="45" fill="#e8d4b8" stroke="none" /><rect x="45" y="0" width="45" height="45" fill="#b58863" stroke="none" /><rect x="90" y="0" width="45" height="45" fill="#e8d4b8" stroke="none" /><rect x="135" y="0" width="45" height="45" fill="#b58863" stroke="none" /><rect x="180" y="0" width="45" height="45" fill="#e8d4b8" stroke="none" /><rect x="225" y="0" width="45" height="45" fill="#b58863" stroke="none" /><rect x="270" y="0" width="45" height="45" fill="#e8d4b8" stroke="none" /><rect x="315" y="0" width="45" height="45" fill="#b58863" stroke="none" /><rect x="360" y="0" width="45" height="45" fill="#e8d4b8" stroke="none" /><rect x="405" y="0" width="45" height="45" fill="#b58863" stroke="none" /><rect x="0" y="45" width="45" height="45" fill="#b58863" stroke="none" /><rect x="45" y="45" width="45" height="45" fill="#e8d4b8" stroke="none" /><rect x="90" y="45" width="45" height="45" fill="#b58863" stroke="none" /><rect x="135" y="45" width="45" height="45" fill="#e8d4b8" stroke="none" /><rect x="180" y="45" width="45" height="45" fill="#b58863" stroke="none" /><rect x="225" y="45" width="45" height="45" fill="#e8d4b8" stroke="none" /><rect x="270" y="45" width="45" height="45" fill="#b58863" stroke="none" /><rect x="315" y="45" width="45" height="45" fill="#e8d4b8" stroke="none" /><rect x="360" y="45" width="45" height="45" fill="#b58863" stroke="none" /><rect x="405" y="45" width="45" height="45" fill="#e8d4b8" stroke="none" /><rect x="0" y="90" width="45" height="45" fill="#e8d4b8" stroke="none" /><rect x="45" y="90" width="45" height="45" fill="#b58863" stroke="none" /><rect x="90" y="90" width="45" height="45" fill="#e8d4b8" stroke="none" /><rect x="135" y="90" width="45" height="45" fill="#b58863" stroke="none" /><rect x="180" y="90" width="45" height="45" fill="#e8d4b8" stroke="none" /><rect x="225" y="90" width="45" height="45" fill="#b58863" stroke="none" /><rect x="270" y="90" width="45" height="45" fill="#e8d4b8" stroke="none" /><rect x="315" y="90" width="45" height="45" fill="#b58863" stroke="none" /><rect x="360" y="90" width="45" height="45" fill="#e8d4b8" stroke="none" /><rect x="405" y="90" width="45" height="45" fill="#b58863" stroke="none" /><rect x="0" y="135" width="45" height="45" fill="#b58863" stroke="none" /><rect x="45" y="135" width="45" height="45" fill="#e8d4b8" stroke="none" /><rect x="90" y="135" width="45" height="45" fill="#b58863" stroke="none" /><rect x="135" y="135" width="45" height="45" fill="#e8d4b8" stroke="none" /><rect x="180" y="135" width="45" height="45" fill="#b58863" stroke="none" /><rect x="225" y="135" width="45" height="45" fill="#e8d4b8" stroke="none" /><rect x="270" y="135" width="45" height="45" fill="#b58863" stroke="none" /><rect x="315" y="135" width="45" height="45" fill="#e8d4b8" stroke="none" /><rect x="360" y="135" width="45" height="45" fill="#b58863" stroke="none" /><rect x="405" y="135" width="45" height="45" fill="#e8d4b8" stroke="none" /><rect x="0" y="180" width="45" height="45" fill="#e8d4b8" stroke="none" /><rect x="45" y="180" width="45" height="45" fill="#b58863" stroke="none" /><rect x="90" y="180" width="45" height="45" fill="#e8d4b8" stroke="none" /><rect x="135" y="180" width="45" height="45" fill="#b58863" stroke="none" /><rect x="180" y="180" width="45" height="45" fill="#e8d4b8" stroke="none" /><rect x="225" y="180" width="45" height="45" fill="#b58863" stroke="none" /><rect x="270" y="180" width="45" height="45" fill="#e8d4b8" stroke="none" /><rect x="315" y="180" width="45" height="45" fill="#b58863" stroke="none" /><rect x="360" y="180" width="45" height="45" fill="#e8d4b8" stroke="none" /><rect x="405" y="180" width="45" height="45" fill="#b58863" stroke="none" /><rect x="0" y="225" width="45" height="45" fill="#b58863" stroke="none" /><rect x="45" y="225" width="45" height="45" fill="#e8d4b8" stroke="none" /><rect x="90" y="225" width="45" height="45" fill="#b58863" stroke="none" /><rect x="135" y="225" width="45" height="45" fill="#e8d4b8" stroke="none" /><rect x="180" y="225" width="45" height="45" fill="#b58863" stroke="none" /><rect x="225" y="225" width="45" height="45" fill="#e8d4b8" stroke="none" /><rect x="270" y="225" width="45" height="45" fill="#b58863" stroke="none" /><rect x="315" y="225" width="45" height="45" fill="#e8d4b8" stroke="none" /><rect x="360" y="225" width="45" height="45" fill="#b58863" stroke="none" /><rect x="405" y="225" width="45" height="45" fill="#e8d4b8" stroke="none" /><rect x="0" y="270" width="45" height="45" fill="#e8d4b8" stroke="none" /><rect x="45" y="270" width="45" height="45" fill="#b58863" stroke="none" /><rect x="90" y="270" width="45" height="45" fill="#e8d4b8" stroke="none" /><rect x="135" y="270" width="45" height="45" fill="#b58863" stroke="none" /><rect x="180" y="270" width="45" height="45" fill="#e8d4b8" stroke="none" /><rect x="225" y="270" width="45" height="45" fill="#b58863" stroke="none" /><rect x="270" y="270" width="45" height="45" fill="#e8d4b8" stroke="none" /><rect x="315" y="270" width="45" height="45" fill="#b58863" stroke="none" /><rect x="360" y="270" width="45" height="45" fill="#e8d4b8" stroke="none" /><rect x="405" y="270" width="45" height="45" fill="#b58863" stroke="none" /><rect x="0" y="315" width="45" height="45" fill="#b58863" stroke="none" /><rect x="45" y="315" width="45" height="45" fill="#e8d4b8" stroke="none" /><rect x="90" y="315" width="45" height="45" fill="#b58863" stroke="none" /><rect x="135" y="315" width="45" height="45" fill="#e8d4b8" stroke="none" /><rect x="180" y="315" width="45" height="45" fill="#b58863" stroke="none" /><rect x="225" y="315" width="45" height="45" fill="#e8d4b8" stroke="none" /><rect x="270" y="315" width="45" height="45" fill="#b58863" stroke="none" /><rect x="315" y="315" width="45" height="45" fill="#e8d4b8" stroke="none" /><rect x="360" y="315" width="45" height="45" fill="#b58863" stroke="none" /><rect x="405" y="315" width="45" height="45" fill="#e8d4b8" stroke="none" /><rect x="0" y="360" width="45" height="45" fill="#e8d4b8" stroke="none" /><rect x="45" y="360" width="45" height="45" fill="#b58863" stroke="none" /><rect x="90" y="360" width="45" height="45" fill="#e8d4b8" stroke="none" /><rect x="135" y="360" width="45" height="45" fill="#b58863" stroke="none" /><rect x="180" y="360" width="45" height="45" fill="#e8d4b8" stroke="none" /><rect x="225" y="360" width="45" height="45" fill="#b58863" stroke="none" /><rect x="270" y="360" width="45" height="45" fill="#e8d4b8" stroke="none" /><rect x="315" y="360" width="45" height="45" fill="#b58863" stroke="none" /><rect x="360" y="360" width="45" height="45" fill="#e8d4b8" stroke="none" /><rect x="405" y="360" width="45" height="45" fill="#b58863" stroke="none" /><rect x="0" y="405" width="45" height="45" fill="#b58863" stroke="none" /><rect x="45" y="405" width="45" height="45" fill="#e8d4b8" stroke="none" /><rect x="90" y="405" width="45" height="45" fill="#b58863" stroke="none" /><rect x="135" y="405" width="45" height="45" fill="#e8d4b8" stroke="none" /><rect x="180" y="405" width="45" height="45" fill="#b58863" stroke="none" /><rect x="225" y="405" width="45" height="45" fill="#e8d4b8" stroke="none" /><rect x="270" y="405" width="45" height="45" fill="#b58863" stroke="none" /><rect x="315" y="405" width="45" height="45" fill="#e8d4b8" stroke="none" /><rect x="360" y="405" width="45" height="45" fill="#b58863" stroke="none" /><rect x="405" y="405" width="45" height="45" fill="#e8d4b8" stroke="none" /><circle cx="67.5" cy="22.5" r="18.0" fill="#1a1a1a" stroke="#000000" stroke-width="2" /><circle cx="157.5" cy="22.5" r="18.0" fill="#1a1a1a" stroke="#000000" stroke-width="2" /><circle cx="247.5" cy="22.5" r="18.0" fill="#1a1a1a" stroke="#000000" stroke-width="2" /><circle cx="337.5" cy="22.5" r="18.0" fill="#1a1a1a" stroke="#000000" stroke-width="2" /><circle cx="427.5" cy="22.5" r="18.0" fill="#1a1a1a" stroke="#000000" stroke-width="2" /><circle cx="22.5" cy="67.5" r="18.0" fill="#1a1a1a" stroke="#000000" stroke-width="2" /><circle cx="112.5" cy="67.5" r="18.0" fill="#1a1a1a" stroke="#000000" stroke-width="2" /><circle cx="202.5" cy="67.5" r="18.0" fill="#1a1a1a" stroke="#000000" stroke-width="2" /><circle cx="292.5" cy="67.5" r="18.0" fill="#1a1a1a" stroke="#000000" stroke-width="2" /><circle cx="382.5" cy="67.5" r="18.0" fill="#1a1a1a" stroke="#000000" stroke-width="2" /><circle cx="67.5" cy="112.5" r="18.0" fill="#1a1a1a" stroke="#000000" stroke-width="2" /><circle cx="157.5" cy="112.5" r="18.0" fill="#1a1a1a" stroke="#000000" stroke-width="2" /><circle cx="247.5" cy="112.5" r="18.0" fill="#1a1a1a" stroke="#000000" stroke-width="2" /><circle cx="337.5" cy="112.5" r="18.0" fill="#1a1a1a" stroke="#000000" stroke-width="2" /><circle cx="427.5" cy="112.5" r="18.0" fill="#1a1a1a" stroke="#000000" stroke-width="2" /><circle cx="22.5" cy="157.5" r="18.0" fill="#1a1a1a" stroke="#000000" stroke-width="2" /><circle cx="112.5" cy="157.5" r="18.0" fill="#1a1a1a" stroke="#000000" stroke-width="2" /><circle cx="202.5" cy="157.5" r="18.0" fill="#1a1a1a" stroke="#000000" stroke-width="2" /><circle cx="292.5" cy="157.5" r="18.0" fill="#1a1a1a" stroke="#000000" stroke-width="2" /><circle cx="382.5" cy="157.5" r="18.0" fill="#1a1a1a" stroke="#000000" stroke-width="2" /><circle cx="67.5" cy="292.5" r="18.0" fill="#f0f0f0" stroke="#000000" stroke-width="2" /><circle cx="157.5" cy="292.5" r="18.0" fill="#f0f0f0" stroke="#000000" stroke-width="2" /><circle cx="247.5" cy="292.5" r="18.0" fill="#f0f0f0" stroke="#000000" stroke-width="2" /><circle cx="337.5" cy="292.5" r="18.0" fill="#f0f0f0" stroke="#000000" stroke-width="2" /><circle cx="427.5" cy="292.5" r="18.0" fill="#f0f0f0" stroke="#000000" stroke-width="2" /><circle cx="22.5" cy="337.5" r="18.0" fill="#f0f0f0" stroke="#000000" stroke-width="2" /><circle cx="112.5" cy="337.5" r="18.0" fill="#f0f0f0" stroke="#000000" stroke-width="2" /><circle cx="202.5" cy="337.5" r="18.0" fill="#f0f0f0" stroke="#000000" stroke-width="2" /><circle cx="292.5" cy="337.5" r="18.0" fill="#f0f0f0" stroke="#000000" stroke-width="2" /><circle cx="382.5" cy="337.5" r="18.0" fill="#f0f0f0" stroke="#000000" stroke-width="2" /><circle cx="67.5" cy="382.5" r="18.0" fill="#f0f0f0" stroke="#000000" stroke-width="2" /><circle cx="157.5" cy="382.5" r="18.0" fill="#f0f0f0" stroke="#000000" stroke-width="2" /><circle cx="247.5" cy="382.5" r="18.0" fill="#f0f0f0" stroke="#000000" stroke-width="2" /><circle cx="337.5" cy="382.5" r="18.0" fill="#f0f0f0" stroke="#000000" stroke-width="2" /><circle cx="427.5" cy="382.5" r="18.0" fill="#f0f0f0" stroke="#000000" stroke-width="2" /><circle cx="22.5" cy="427.5" r="18.0" fill="#f0f0f0" stroke="#000000" stroke-width="2" /><circle cx="112.5" cy="427.5" r="18.0" fill="#f0f0f0" stroke="#000000" stroke-width="2" /><circle cx="202.5" cy="427.5" r="18.0" fill="#f0f0f0" stroke="#000000" stroke-width="2" /><circle cx="292.5" cy="427.5" r="18.0" fill="#f0f0f0" stroke="#000000" stroke-width="2" /><circle cx="382.5" cy="427.5" r="18.0" fill="#f0f0f0" stroke="#000000" stroke-width="2" /></svg>