<svg xmlns="http://www.w3.org/2000/svg" xmlns:xlink="http://www.w3.org/1999/xlink" viewBox="0 0 490 490" width="400" height="400"><desc><pre> . b . b . b . b . b
 b . b . b . b . b .
 . b . b . b . b . b
 b . b . b . b . b .
 . . . . . . . . . .
 . . . . . . . . . .
 . w . w . w . w . w
 w . w . w . w . w .
 . w . w . w . w . w
 w . w . w . w . w .
</pre></desc><rect x="0" y="0" width="490" height="490" fill="#212121" /><rect x="425" y="425" width="45" height="45" fill="#e8d4b8" stroke="none" /><rect x="380" y="425" width="45" height="45" fill="#b58863" stroke="none" /><rect x="335" y="425" width="45" height="45" fill="#e8d4b8" stroke="none" /><rect x="290" y="425" width="45" height="45" fill="#b58863" stroke="none" /><rect x="245" y="425" width="45" height="45" fill="#e8d4b8" stroke="none" /><rect x="200" y="425" width="45" height="45" fill="#b58863" stroke="none" /><rect x="155" y="425" width="45" height="45" fill="#e8d4b8" stroke="none" /><rect x="110" y="425" width="45" height="45" fill="#b58863" stroke="none" /><rect x="65" y="425" width="45" height="45" fill="#e8d4b8" stroke="none" /><rect x="20" y="425" width="45" height="45" fill="#b58863" stroke="none" /><rect x="425" y="380" width="45" height="45" fill="#b58863" stroke="none" /><rect x="380" y="380" width="45" height="45" fill="#e8d4b8" stroke="none" /><rect x="335" y="380" width="45" height="45" fill="#b58863" stroke="none" /><rect x="290" y="380" width="45" height="45" fill="#e8d4b8" stroke="none" /><rect x="245" y="380" width="45" height="45" fill="#b58863" stroke="none" /><rect x="200" y="380" width="45" height="45" fill="#e8d4b8" stroke="none" /><rect x="155" y="380" width="45" height="45" fill="#b58863" stroke="none" /><rect x="110" y="380" width="45" height="45" fill="#e8d4b8" stroke="none" /><rect x="65" y="380" width="45" height="45" fill="#b58863" stroke="none" /><rect x="20" y="380" width="45" height="45" fill="#e8d4b8" stroke="none" /><rect x="425" y="335" width="45" height="45" fill="#e8d4b8" stroke="none" /><rect x="380" y="335" width="45" height="45" fill="#b58863" stroke="none" /><rect x="335" y="335" width="45" height="45" fill="#e8d4b8" stroke="none" /><rect x="290" y="335" width="45" height="45" fill="#b58863" stroke="none" /><rect x="245" y="335" width="45" height="45" fill="#e8d4b8" stroke="none" /><rect x="200" y="335" width="45" height="45" fill="#b58863" stroke="none" /><rect x="155" y="335" width="45" height="45" fill="#e8d4b8" stroke="none" /><rect x="110" y="335" width="45" height="45" fill="#b58863" stroke="none" /><rect x="65" y="335" width="45" height="45" fill="#e8d4b8" stroke="none" /><rect x="20" y="335" width="45" height="45" fill="#b58863" stroke="none" /><rect x="425" y="290" width="45" height="45" fill="#b58863" stroke="none" /><rect x="380" y="290" width="45" height="45" fill="#e8d4b8" stroke="none" /><rect x="335" y="290" width="45" height="45" fill="#b58863" stroke="none" /><rect x="290" y="290" width="45" height="45" fill="#e8d4b8" stroke="none" /><rect x="245" y="290" width="45" height="45" fill="#b58863" stroke="none" /><rect x="200" y="290" width="45" height="45" fill="#e8d4b8" stroke="none" /><rect x="155" y="290" width="45" height="45" fill="#b58863" stroke="none" /><rect x="110" y="290" width="45" height="45" fill="#e8d4b8" stroke="none" /><rect x="65" y="290" width="45" height="45" fill="#b58863" stroke="none" /><rect x="20" y="290" width="45" height="45" fill="#e8d4b8" stroke="none" /><rect x="425" y="245" width="45" height="45" fill="#e8d4b8" stroke="none" /><rect x="380" y="245" width="45" height="45" fill="#b58863" stroke="none" /><rect x="335" y="245" width="45" height="45" fill="#e8d4b8" stroke="none" /><rect x="290" y="245" width="45" height="45" fill="#b58863" stroke="none" /><rect x="245" y="245" width="45" height="45" fill="#e8d4b8" stroke="none" /><rect x="200" y="245" width="45" height="45" fill="#b58863" stroke="none" /><rect x="155" y="245" width="45" height="45" fill="#e8d4b8" stroke="none" /><rect x="110" y="245" width="45" height="45" fill="#b58863" stroke="none" /><rect x="65" y="245" width="45" height="45" fill="#e8d4b8" stroke="none" /><rect x="20" y="245" width="45" height="45" fill="#b58863" stroke="none" /><rect x="425" y="200" width="45" height="45" fill="#b58863" stroke="none" /><rect x="380" y="200" width="45" height="45" fill="#e8d4b8" stroke="none" /><rect x="335" y="200" width="45" height="45" fill="#b58863" stroke="none" /><rect x="290" y="200" width="45" height="45" fill="#e8d4b8" stroke="none" /><rect x="245" y="200" width="45" height="45" fill="#b58863" stroke="none" /><rect x="200" y="200" width="45" height="45" fill="#e8d4b8" stroke="none" /><rect x="155" y="200" width="45" height="45" fill="#b58863" stroke="none" /><rect x="110" y="200" width="45" height="45" fill="#e8d4b8" stroke="none" /><rect x="65" y="200" width="45" height="45" fill="#b58863" stroke="none" /><rect x="20" y="200" width="45" height="45" fill="#e8d4b8" stroke="none" /><rect x="425" y="155" width="45" height="45" fill="#e8d4b8" stroke="none" /><rect x="380" y="155" width="45" height="45" fill="#b58863" stroke="none" /><rect x="335" y="155" width="45" height="45" fill="#e8d4b8" stroke="none" /><rect x="290" y="155" width="45" height="45" fill="#b58863" stroke="none" /><rect x="245" y="155" width="45" height="45" fill="#e8d4b8" stroke="none" /><rect x="200" y="155" width="45" height="45" fill="#b58863" stroke="none" /><rect x="155" y="155" width="45" height="45" fill="#e8d4b8" stroke="none" /><rect x="110" y="155" width="45" height="45" fill="#b58863" stroke="none" /><rect x="65" y="155" width="45" height="45" fill="#e8d4b8" stroke="none" /><rect x="20" y="155" width="45" height="45" fill="#b58863" stroke="none" /><rect x="425" y="110" width="45" height="45" fill="#b58863" stroke="none" /><rect x="380" y="110" width="45" height="45" fill="#e8d4b8" stroke="none" /><rect x="335" y="110" width="45" height="45" fill="#b58863" stroke="none" /><rect x="290" y="110" width="45" height="45" fill="#e8d4b8" stroke="none" /><rect x="245" y="110" width="45" height="45" fill="#b58863" stroke="none" /><rect x="200" y="110" width="45" height="45" fill="#e8d4b8" stroke="none" /><rect x="155" y="110" width="45" height="45" fill="#b58863" stroke="none" /><rect x="110" y="110" width="45" height="45" fill="#e8d4b8" stroke="none" /><rect x="65" y="110" width="45" height="45" fill="#b58863" stroke="none" /><rect x="20" y="110" width="45" height="45" fill="#e8d4b8" stroke="none" /><rect x="425" y="65" width="45" height="45" fill="#e8d4b8" stroke="none" /><rect x="380" y="65" width="45" height="45" fill="#b58863" stroke="none" /><rect x="335" y="65" width="45" height="45" fill="#e8d4b8" stroke="none" /><rect x="290" y="65" width="45" height="45" fill="#b58863" stroke="none" /><rect x="245" y="65" width="45" height="45" fill="#e8d4b8" stroke="none" /><rect x="200" y="65" width="45" height="45" fill="#b58863" stroke="none" /><rect x="155" y="65" width="45" height="45" fill="#e8d4b8" stroke="none" /><rect x="110" y="65" width="45" height="45" fill="#b58863" stroke="none" /><rect x="65" y="65" width="45" height="45" fill="#e8d4b8" stroke="none" /><rect x="20" y="65" width="45" height="45" fill="#b58863" stroke="none" /><rect x="425" y="20" width="45" height="45" fill="#b58863" stroke="none" /><rect x="380" y="20" width="45" height="45" fill="#e8d4b8" stroke="none" /><rect x="335" y="20" width="45" height="45" fill="#b58863" stroke="none" /><rect x="290" y="20" width="45" height="45" fill="#e8d4b8" stroke="none" /><rect x="245" y="20" width="45" height="45" fill="#b58863" stroke="none" /><rect x="200" y="20" width="45" height="45" fill="#e8d4b8" stroke="none" /><rect x="155" y="20" width="45" height="45" fill="#b58863" stroke="none" /><rect x="110" y="20" width="45" height="45" fill="#e8d4b8" stroke="none" /><rect x="65" y="20" width="45" height="45" fill="#b58863" stroke="none" /><rect x="20" y="20" width="45" height="45" fill="#e8d4b8" stroke="none" /><text x="10.0" y="42.5" fill="#e5e5e5" font-size="12" font-family="Arial, sans-serif" text-anchor="middle" dominant-baseline="central">1</text><text x="480.0" y="42.5" fill="#e5e5e5" font-size="12" font-family="Arial, sans-serif" text-anchor="middle" dominant-baseline="central">1</text><text x="10.0" y="87.5" fill="#e5e5e5" font-size="12" font-family="Arial, sans-serif" text-anchor="middle" dominant-baseline="central">2</text><text x="480.0" y="87.5" fill="#e5e5e5" font-size="12" font-family="Arial, sans-serif" text-anchor="middle" dominant-baseline="central">2</text><text x="10.0" y="132.5" fill="#e5e5e5" font-size="12" font-family="Arial, sans-serif" text-anchor="middle" dominant-baseline="central">3</text><text x="480.0" y="132.5" fill="#e5e5e5" font-size="12" font-family="Arial, sans-serif" text-anchor="middle" dominant-baseline="central">3</text><text x="10.0" y="177.5" fill="#e5e5e5" font-size="12" font-family="Arial, sans-serif" text-anchor="middle" dominant-baseline="central">4</text><text x="480.0" y="177.5" fill="#e5e5e5" font-size="12" font-family="Arial, sans-serif" text-anchor="middle" dominant-baseline="central">4</text><text x="10.0" y="222.5" fill="#e5e5e5" font-size="12" font-family="Arial, sans-serif" text-anchor="middle" dominant-baseline="central">5</text><text x="480.0" y="222.5" fill="#e5e5e5" font-size="12" font-family="Arial, sans-serif" text-anchor="middle" dominant-baseline="central">5</text><text x="10.0" y="267.5" fill="#e5e5e5" font-size="12" font-family="Arial, sans-serif" text-anchor="middle" dominant-baseline="central">6</text><text x="480.0" y="267.5" fill="#e5e5e5" font-size="12" font-family="Arial, sans-serif" text-anchor="middle" dominant-baseline="central">6</text><text x="10.0" y="312.5" fill="#e5e5e5" font-size="12" font-family="Arial, sans-serif" text-anchor="middle" dominant-baseline="central">7</text><text x="480.0" y="312.5" fill="#e5e5e5" font-size="12" font-family="Arial, sans-serif" text-anchor="middle" dominant-baseline="central">7</text><text x="10.0" y="357.5" fill="#e5e5e5" font-size="12" font-family="Arial, sans-serif" text-anchor="middle" dominant-baseline="central">8</text><text x="480.0" y="357.5" fill="#e5e5e5" font-size="12" font-family="Arial, sans-serif" text-anchor="middle" dominant-baseline="central">8</text><text x="10.0" y="402.5" fill="#e5e5e5" font-size="12" font-family="Arial, sans-serif" text-anchor="middle" dominant-baseline="central">9</text><text x="480.0" y="402.5" fill="#e5e5e5" font-size="12" font-family="Arial, sans-serif" text-anchor="middle" dominant-baseline="central">9</text><text x="10.0" y="447.5" fill="#e5e5e5" font-size="12" font-family="Arial, sans-serif" text-anchor="middle" dominant-baseline="central">10</text><text x="480.0" y="447.5" fill="#e5e5e5" font-size="12" font-family="Arial, sans-serif" text-anchor="middle" dominant-baseline="central">10</text><text x="42.5" y="10.0" fill="#e5e5e5" font-size="12" font-family="Arial, sans-serif" text-anchor="middle" dominant-baseline="central">j</text><text x="42.5" y="480.0" fill="#e5e5e5" font-size="12" font-family="Arial, sans-serif" text-anchor="middle" dominant-baseline="central">j</text><text x="87.5" y="10.0" fill="#e5e5e5" font-size="12" font-family="Arial, sans-serif" text-anchor="middle" dominant-baseline="central">i</text><text x="87.5" y="480.0" fill="#e5e5e5" font-size="12" font-family="Arial, sans-serif" text-anchor="middle" dominant-baseline="central">i</text><text x="132.5" y="10.0" fill="#e5e5e5" font-size="12" font-family="Arial, sans-serif" text-anchor="middle" dominant-baseline="central">h</text><text x="132.5" y="480.0" fill="#e5e5e5" font-size="12" font-family="Arial, sans-serif" text-anchor="middle" dominant-baseline="central">h</text><text x="177.5" y="10.0" fill="#e5e5e5" font-size="12" font-family="Arial, sans-serif" text-anchor="middle" dominant-baseline="central">g</text><text x="177.5" y="480.0" fill="#e5e5e5" font-size="12" font-family="Arial, sans-serif" text-anchor="middle" dominant-baseline="central">g</text><text x="222.5" y="10.0" fill="#e5e5e5" font-size="12" font-family="Arial, sans-serif" text-anchor="middle" dominant-baseline="central">f</text><text x="222.5" y="480.0" fill="#e5e5e5" font-size="12" font-family="Arial, sans-serif" text-anchor="middle" dominant-baseline="central">f</text><text x="267.5" y="10.0" fill="#e5e5e5" font-size="12" font-family="Arial, sans-serif" text-anchor="middle" dominant-baseline="central">e</text><text x="267.5" y="480.0" fill="#e5e5e5" font-size="12" font-family="Arial, sans-serif" text-anchor="middle" dominant-baseline="central">e</text><text x="312.5" y="10.0" fill="#e5e5e5" font-size="12" font-family="Arial, sans-serif" text-anchor="middle" dominant-baseline="central">d</text><text x="312.5" y="480.0" fill="#e5e5e5" font-size="12" font-family="Arial, sans-serif" text-anchor="middle" dominant-baseline="central">d</text><text x="357.5" y="10.0" fill="#e5e5e5" font-size="12" font-family="Arial, sans-serif" text-anchor="middle" dominant-baseline="central">c</text><text x="357.5" y="480.0" fill="#e5e5e5" font-size="12" font-family="Arial, sans-serif" text-anchor="middle" dominant-baseline="central">c</text><text x="402.5" y="10.0" fill="#e5e5e5" font-size="12" font-family="Arial, sans-serif" text-anchor="middle" dominant-baseline="central">b</text><text x="402.5" y="480.0" fill="#e5e5e5" font-size="12" font-family="Arial, sans-serif" text-anchor="middle" dominant-baseline="central">b</text><text x="447.5" y="10.0" fill="#e5e5e5" font-size="12" font-family="Arial, sans-serif" text-anchor="middle" dominant-baseline="central">a</text><text x="447.5" y="480.0" fill="#e5e5e5" font-size="12" font-family="Arial, sans-serif" text-anchor="middle" dominant-baseline="central">a</text><text x="386.75" y="434.0" fill="#ffffff80" font-size="9" font-family="Arial, sans-serif" text-anchor="start" dominant-baseline="hanging">1</text><text x="296.75" y="434.0" fill="#ffffff80" font-size="9" font-family="Arial, sans-serif" text-anchor="start" dominant-baseline="hanging">2</text><text x="206.75" y="434.0" fill="#ffffff80" font-size="9" font-family="Arial, sans-serif" text-anchor="start" dominant-baseline="hanging">3</text><text x="116.75" y="434.0" fill="#ffffff80" font-size="9" font-family="Arial, sans-serif" text-anchor="start" dominant-baseline="hanging">4</text><text x="26.75" y="434.0" fill="#ffffff80" font-size="9" font-family="Arial, sans-serif" text-anchor="start" dominant-baseline="hanging">5</text><text x="431.75" y="389.0" fill="#ffffff80" font-size="9" font-family="Arial, sans-serif" text-anchor="start" dominant-baseline="hanging">6</text><text x="341.75" y="389.0" fill="#ffffff80" font-size="9" font-family="Arial, sans-serif" text-anchor="start" dominant-baseline="hanging">7</text><text x="251.75" y="389.0" fill="#ffffff80" font-size="9" font-family="Arial, sans-serif" text-anchor="start" dominant-baseline="hanging">8</text><text x="161.75" y="389.0" fill="#ffffff80" font-size="9" font-family="Arial, sans-serif" text-anchor="start" dominant-baseline="hanging">9</text><text x="71.75" y="389.0" fill="#ffffff80" font-size="9" font-family="Arial, sans-serif" text-anchor="start" dominant-baseline="hanging">10</text><text x="386.75" y="344.0" fill="#ffffff80" font-size="9" font-family="Arial, sans-serif" text-anchor="start" dominant-baseline="hanging">11</text><text x="296.75" y="344.0" fill="#ffffff80" font-size="9" font-family="Arial, sans-serif" text-anchor="start" dominant-baseline="hanging">12</text><text x="206.75" y="344.0" fill="#ffffff80" font-size="9" font-family="Arial, sans-serif" text-anchor="start" dominant-baseline="hanging">13</text><text x="116.75" y="344.0" fill="#ffffff80" font-size="9" font-family="Arial, sans-serif" text-anchor="start" dominant-baseline="hanging">14</text><text x="26.75" y="344.0" fill="#ffffff80" font-size="9" font-family="Arial, sans-serif" text-anchor="start" dominant-baseline="hanging">15</text><text x="431.75" y="299.0" fill="#ffffff80" font-size="9" font-family="Arial, sans-serif" text-anchor="start" dominant-baseline="hanging">16</text><text x="341.75" y="299.0" fill="#ffffff80" font-size="9" font-family="Arial, sans-serif" text-anchor="start" dominant-baseline="hanging">17</text><text x="251.75" y="299.0" fill="#ffffff80" font-size="9" font-family="Arial, sans-serif" text-anchor="start" dominant-baseline="hanging">18</text><text x="161.75" y="299.0" fill="#ffffff80" font-size="9" font-family="Arial, sans-serif" text-anchor="start" dominant-baseline="hanging">19</text><text x="71.75" y="299.0" fill="#ffffff80" font-size="9" font-family="Arial, sans-serif" text-anchor="start" dominant-baseline="hanging">20</text><text x="386.75" y="254.0" fill="#ffffff80" font-size="9" font-family="Arial, sans-serif" text-anchor="start" dominant-baseline="hanging">21</text><text x="296.75" y="254.0" fill="#ffffff80" font-size="9" font-family="Arial, sans-serif" text-anchor="start" dominant-baseline="hanging">22</text><text x="206.75" y="254.0" fill="#ffffff80" font-size="9" font-family="Arial, sans-serif" text-anchor="start" dominant-baseline="hanging">23</text><text x="116.75" y="254.0" fill="#ffffff80" font-size="9" font-family="Arial, sans-serif" text-anchor="start" dominant-baseline="hanging">24</text><text x="26.75" y="254.0" fill="#ffffff80" font-size="9" font-family="Arial, sans-serif" text-anchor="start" dominant-baseline="hanging">25</text><text x="431.75" y="209.0" fill="#ffffff80" font-size="9" font-family="Arial, sans-serif" text-anchor="start" dominant-baseline="hanging">26</text><text x="341.75" y="209.0" fill="#ffffff80" font-size="9" font-family="Arial, sans-serif" text-anchor="start" dominant-baseline="hanging">27</text><text x="251.75" y="209.0" fill="#ffffff80" font-size="9" font-family="Arial, sans-serif" text-anchor="start" dominant-baseline="hanging">28</text><text x="161.75" y="209.0" fill="#ffffff80" font-size="9" font-family="Arial, sans-serif" text-anchor="start" dominant-baseline="hanging">29</text><text x="71.75" y="209.0" fill="#ffffff80" font-size="9" font-family="Arial, sans-serif" text-anchor="start" dominant-baseline="hanging">30</text><text x="386.75" y="164.0" fill="#ffffff80" font-size="9" font-family="Arial, sans-serif" text-anchor="start" dominant-baseline="hanging">31</text><text x="296.75" y="164.0" fill="#ffffff80" font-size="9" font-family="Arial, sans-serif" text-anchor="start" dominant-baseline="hanging">32</text><text x="206.75" y="164.0" fill="#ffffff80" font-size="9" font-family="Arial, sans-serif" text-anchor="start" dominant-baseline="hanging">33</text><text x="116.75" y="164.0" fill="#ffffff80" font-size="9" font-family="Arial, sans-serif" text-anchor="start" dominant-baseline="hanging">34</text><text x="26.75" y="164.0" fill="#ffffff80" font-size="9" font-family="Arial, sans-serif" text-anchor="start" dominant-baseline="hanging">35</text><text x="431.75" y="119.0" fill="#ffffff80" font-size="9" font-family="Arial, sans-serif" text-anchor="start" dominant-baseline="hanging">36</text><text x="341.75" y="119.0" fill="#ffffff80" font-size="9" font-family="Arial, sans-serif" text-anchor="start" dominant-baseline="hanging">37</text><text x="251.75" y="119.0" fill="#ffffff80" font-size="9" font-family="Arial, sans-serif" text-anchor="start" dominant-baseline="hanging">38</text><text x="161.75" y="119.0" fill="#ffffff80" font-size="9" font-family="Arial, sans-serif" text-anchor="start" dominant-baseline="hanging">39</text><text x="71.75" y="119.0" fill="#ffffff80" font-size="9" font-family="Arial, sans-serif" text-anchor="start" dominant-baseline="hanging">40</text><text x="386.75" y="74.0" fill="#ffffff80" font-size="9" font-family="Arial, sans-serif" text-anchor="start" dominant-baseline="hanging">41</text><text x="296.75" y="74.0" fill="#ffffff80" font-size="9" font-family="Arial, sans-serif" text-anchor="start" dominant-baseline="hanging">42</text><text x="206.75" y="74.0" fill="#ffffff80" font-size="9" font-family="Arial, sans-serif" text-anchor="start" dominant-baseline="hanging">43</text><text x="116.75" y="74.0" fill="#ffffff80" font-size="9" font-family="Arial, sans-serif" text-anchor="start" dominant-baseline="hanging">44</text><text x="26.75" y="74.0" fill="#ffffff80" font-size="9" font-family="Arial, sans-serif" text-anchor="start" dominant-baseline="hanging">45</text><text x="431.75" y="29.0" fill="#ffffff80" font-size="9" font-family="Arial, sans-serif" text-anchor="start" dominant-baseline="hanging">46</text><text x="341.75" y="29.0" fill="#ffffff80" font-size="9" font-family="Arial, sans-serif" text-anchor="start" dominant-baseline="hanging">47</text><text x="251.75" y="29.0" fill="#ffffff80" font-size="9" font-family="Arial, sans-serif" text-anchor="start" dominant-baseline="hanging">48</text><text x="161.75" y="29.0" fill="#ffffff80" font-size="9" font-family="Arial, sans-serif" text-anchor="start" dominant-baseline="hanging">49</text><text x="71.75" y="29.0" fill="#ffffff80" font-size="9" font-family="Arial, sans-serif" text-anchor="start" dominant-baseline="hanging">50</text><circle cx="402.5" cy="447.5" r="18.0" fill="#1a1a1a" stroke="#000000" stroke-width="2" /><circle cx="312.5" cy="447.5" r="18.0" fill="#1a1a1a" stroke="#000000" stroke-width="2" /><circle cx="222.5" cy="447.5" r="18.0" fill="#1a1a1a" stroke="#000000" stroke-width="2" /><circle cx="132.5" cy="447.5" r="18.0" fill="#1a1a1a" stroke="#000000" stroke-width="2" /><circle cx="42.5" cy="447.5" r="18.0" fill="#1a1a1a" stroke="#000000" stroke-width="2" /><circle cx="447.5" cy="402.5" r="18.0" fill="#1a1a1a" stroke="#000000" stroke-width="2" /><circle cx="357.5" cy="402.5" r="18.0" fill="#1a1a1a" stroke="#000000" stroke-width="2" /><circle cx="267.5" cy="402.5" r="18.0" fill="#1a1a1a" stroke="#000000" stroke-width="2" /><circle cx="177.5" cy="402.5" r="18.0" fill="#1a1a1a" stroke="#000000" stroke-width="2" /><circle cx="87.5" cy="402.5" r="18.0" fill="#1a1a1a" stroke="#000000" stroke-width="2" /><circle cx="402.5" cy="357.5" r="18.0" fill="#1a1a1a" stroke="#000000" stroke-width="2" /><circle cx="312.5" cy="357.5" r="18.0" fill="#1a1a1a" stroke="#000000" stroke-width="2" /><circle cx="222.5" cy="357.5" r="18.0" fill="#1a1a1a" stroke="#000000" stroke-width="2" /><circle cx="132.5" cy="357.5" r="18.0" fill="#1a1a1a" stroke="#000000" stroke-width="2" /><circle cx="42.5" cy="357.5" r="18.0" fill="#1a1a1a" stroke="#000000" stroke-width="2" /><circle cx="447.5" cy="312.5" r="18.0" fill="#1a1a1a" stroke="#000000" stroke-width="2" /><circle cx="357.5" cy="312.5" r="18.0" fill="#1a1a1a" stroke="#000000" stroke-width="2" /><circle cx="267.5" cy="312.5" r="18.0" fill="#1a1a1a" stroke="#000000" stroke-width="2" /><circle cx="177.5" cy="312.5" r="18.0" fill="#1a1a1a" stroke="#000000" stroke-width="2" /><circle cx="87.5" cy="312.5" r="18.0" fill="#1a1a1a" stroke="#000000" stroke-width="2" /><circle cx="402.5" cy="177.5" r="18.0" fill="#f0f0f0" stroke="#000000" stroke-width="2" /><circle cx="312.5" cy="177.5" r="18.0" fill="#f0f0f0" stroke="#000000" stroke-width="2" /><circle cx="222.5" cy="177.5" r="18.0" fill="#f0f0f0" stroke="#000000" stroke-width="2" /><circle cx="132.5" cy="177.5" r="18.0" fill="#f0f0f0" stroke="#000000" stroke-width="2" /><circle cx="42.5" cy="177.5" r="18.0" fill="#f0f0f0" stroke="#000000" stroke-width="2" /><circle cx="447.5" cy="132.5" r="18.0" fill="#f0f0f0" stroke="#000000" stroke-width="2" /><circle cx="357.5" cy="132.5" r="18.0" fill="#f0f0f0" stroke="#000000" stroke-width="2" /><circle cx="267.5" cy="132.5" r="18.0" fill="#f0f0f0" stroke="#000000" stroke-width="2" /><circle cx="177.5" cy="132.5" r="18.0" fill="#f0f0f0" stroke="#000000" stroke-width="2" /><circle cx="87.5" cy="132.5" r="18.0" fill="#f0f0f0" stroke="#000000" stroke-width="2" /><circle cx="402.5" cy="87.5" r="18.0" fill="#f0f0f0" stroke="#000000" stroke-width="2" /><circle cx="312.5" cy="87.5" r="18.0" fill="#f0f0f0" stroke="#000000" stroke-width="2" /><circle cx="222.5" cy="87.5" r="18.0" fill="#f0f0f0" stroke="#000000" stroke-width="2" /><circle cx="132.5" cy="87.5" r="18.0" fill="#f0f0f0" stroke="#000000" stroke-width="2" /><circle cx="42.5" cy="87.5" r="18.0" fill="#f0f0f0" stroke="#000000" stroke-width="2" /><circle cx="447.5" cy="42.5" r="18.0" fill="#f0f0f0" stroke="#000000" stroke-width="2" /><circle cx="357.5" cy="42.5" r="18.0" fill="#f0f0f0" stroke="#000000" stroke-width="2" /><circle cx="267.5" cy="42.5" r="18.0" fill="#f0f0f0" stroke="#000000" stroke-width="2" /><circle cx="177.5" cy="42.5" r="18.0" fill="#f0f0f0" stroke="#000000" stroke-width="2" /><circle cx="87.5" cy="42.5" r="18.0" fill="#f0f0f0" stroke="#000000" stroke-width="2" /></svg>